<svg xmlns="http://www.w3.org/2000/svg" viewBox="0 0 128 128" role="img" aria-label="中部釣りコンディション">
  <defs>
    <linearGradient id="bg" x1="0" y1="0" x2="1" y2="1">
      <stop offset="0%" stop-color="#0f766e" />
      <stop offset="100%" stop-color="#173042" />
    </linearGradient>
  </defs>
  <rect width="128" height="128" rx="28" fill="url(#bg)" />
  <path d="M18 81c10-10 21-15 32-15 12 0 21 6 31 6 10 0 17-4 29-14v20c-10 10-20 14-30 14-10 0-20-6-30-6-10 0-18 4-32 15V81Z" fill="#8ee6db" opacity=".95" />
  <path d="M18 95c10-10 21-15 32-15 12 0 21 6 31 6 10 0 17-4 29-14" fill="none" stroke="#dffcf8" stroke-width="7" stroke-linecap="round" />
  <path d="M74 23c11 6 16 12 16 23 0 15-11 29-26 38" fill="none" stroke="#f8fafc" stroke-width="8" stroke-linecap="round" />
  <circle cx="73" cy="81" r="7" fill="#f8fafc" />
  <path d="M73 88v14" fill="none" stroke="#f8fafc" stroke-width="6" stroke-linecap="round" />
  <path d="M63 96l10 10 10-10" fill="none" stroke="#f8fafc" stroke-width="6" stroke-linecap="round" stroke-linejoin="round" />
</svg>
